# xmcd CD database file
#
# Track frame offsets:
#	150
#	20642
#	51727
#	72437
#	84725
#	133970
#	152580
#	167173
#	196809
#	210829
#	234630
#	253042
#
# Disc length: 3770 seconds
#
# Revision: 1
# Processed by: cddbd v1.5.2PL0 Copyright (c) Steve Scherf et al.
# Submitted via: CDex 1.51
#
DISCID=ad0eb80c
DTITLE=Blodwyn Pig - All Said And Done  CD 1
DYEAR=2011
DGENRE=Blues
TTITLE0=My Sunday Feeling
TTITLE1=It's Breaking Me Up
TTITLE2=Serenade To A Cuckoo
TTITLE3=Move On Alone
TTITLE4=Cat's Squirrel
TTITLE5=Someday The Sun Won`t Shine For You
TTITLE6=Song For Jeffrey
TTITLE7=They Call It Stormy Monday
TTITLE8=Trouble In Mind
TTITLE9=Dharma For One
TTITLE10=Beggars Farm
TTITLE11=Rock Me Baby
EXTD=YEAR: 2011
EXTT0=
EXTT1=
EXTT2=
EXTT3=
EXTT4=
EXTT5=
EXTT6=
EXTT7=
EXTT8=
EXTT9=
EXTT10=
EXTT11=
PLAYORDER=
